<svg width="40" height="70" viewBox="0 0 81 194" fill="none" xmlns="http://www.w3.org/2000/svg">
<path d="M58.9246 65.9844C59.1626 65.8803 59.2749 65.7305 59.3606 65.582C59.4649 65.3934 59.6303 65.2407 59.8187 65.1131C59.9505 65.0146 60.0557 64.9175 60.176 64.8065C60.2747 64.4611 60.4958 64.1878 60.7053 63.902C60.9935 63.5205 61.2817 63.139 61.5548 62.7713C61.5698 62.7574 61.5734 62.7311 61.5884 62.7172C62.096 62.2718 62.3362 61.6573 62.7101 61.1274C62.8895 60.8693 63.0309 60.6002 63.2599 60.3657C63.3501 60.2825 63.3907 60.1757 63.4579 60.0675C63.6629 59.7165 63.8183 59.3419 64.0233 58.9909C64.1947 58.6941 64.2785 58.3625 64.3888 58.0296C64.4294 57.9227 64.4585 57.8035 64.5106 57.7091C64.8234 57.1431 65.007 56.5577 65.2055 55.9584C65.4853 55.1455 65.7005 54.3229 65.9006 53.5142C66.1088 52.7443 66.2222 51.9924 66.3241 51.2281C66.4471 50.3056 66.5586 49.3706 66.6285 48.451C66.6653 47.9779 66.6869 47.5188 66.644 47.0499C66.618 46.7503 66.6336 46.4355 66.6192 46.1483C66.6018 45.5865 66.596 45.0372 66.5485 44.5032C66.5011 43.9691 66.4156 43.424 66.3416 42.8914C66.2881 42.5016 66.2231 42.0994 66.1696 41.7096C66.15 41.6583 66.1571 41.6055 66.1376 41.5542C65.8443 40.3918 65.5396 39.217 65.2729 38.0532C64.9866 36.8381 64.6022 35.6675 64.1727 34.5384C63.8177 33.641 63.4062 32.7727 63.0512 31.8753C62.4745 30.466 61.6978 29.172 60.9477 27.8765C60.5071 27.1275 60.0213 26.4202 59.5391 25.6865C59.2341 25.2052 58.884 24.7655 58.549 24.312C58.4488 24.1733 58.3823 23.9805 58.2821 23.8418C58.1704 23.6906 58.0252 23.5935 57.8985 23.4562C57.5794 23.0804 57.2489 22.6921 56.9599 22.2884C56.6399 21.821 56.2147 21.4507 55.8646 21.0111C55.2266 20.2594 54.5099 19.6033 53.8117 18.9071C53.7541 18.8447 53.6815 18.7962 53.6389 18.7199C53.1496 18.0389 52.495 17.5105 51.912 16.9391C51.7968 16.8143 51.648 16.7436 51.5178 16.6326C51.3991 16.5342 51.2919 16.4482 51.1732 16.3497C50.7975 16.003 50.4369 15.6424 50.0497 15.2832C49.8158 15.0599 49.5855 14.8103 49.2764 14.6563C49.1772 14.6092 49.1001 14.4955 49.0159 14.4345C48.8131 14.275 48.5836 14.1169 48.3808 13.9574C48.2966 13.8964 48.2125 13.8354 48.1549 13.773C47.5038 13.2182 46.8005 12.7578 46.1158 12.2572C45.5878 11.8661 45.0263 11.5291 44.5099 11.1505C44.0546 10.808 43.5958 10.4918 43.0769 10.2311C42.6305 10.0189 42.2178 9.75264 41.783 9.55297C41.2109 9.29506 40.6724 8.98308 40.134 8.67107C39.4582 8.30082 38.7674 7.94445 38.0095 7.69628C37.6819 7.58259 37.3879 7.41478 37.0602 7.3011C36.6334 7.14026 36.1916 6.99331 35.7533 6.81999C35.1627 6.60231 34.5756 6.35828 33.985 6.14061C33.3944 5.92293 32.8038 5.70525 32.1981 5.50145C31.7448 5.34201 31.2578 5.23668 30.816 5.08972C30.3741 4.94276 29.9288 4.82216 29.4534 4.7293C28.8106 4.60596 28.2201 4.38827 27.633 4.14424C27.3965 4.03886 27.153 3.98619 26.8645 3.97514C26.0138 3.92813 25.2188 3.76043 24.4307 3.54002C23.9854 3.41941 23.5295 3.37788 23.0586 3.35022C22.5346 3.32534 22.0256 3.28658 21.5456 3.12853C21.3553 3.07308 21.1348 3.0454 20.9109 3.04405C20.5276 3.05105 20.17 2.96508 19.8308 2.83891C19.5679 2.73492 19.2898 2.64483 19.0003 2.54223C18.823 2.2898 18.6422 2.06371 18.6082 1.72526C18.6063 1.54215 18.5061 1.40348 18.3759 1.29253C18.2572 1.19407 18.1535 1.08173 18.0613 0.98187C18.0639 0.863962 18.078 0.758483 18.0805 0.640576C18.1221 0.62531 18.1521 0.597578 18.1902 0.608668C18.8019 0.668208 19.3986 0.74165 19.9988 0.788707C20.3635 0.821934 20.7167 0.842671 21.0292 0.970233C21.1665 1.02847 21.3373 1.03262 21.4967 1.02427C21.7356 1.01174 21.9526 1.06577 22.1695 1.11983C22.5883 1.24182 23.0141 1.31115 23.477 1.29997C23.955 1.27492 24.4259 1.30257 24.8853 1.31775C24.9649 1.31357 25.0446 1.30938 25.0942 1.33295C25.5821 1.52984 26.1443 1.5658 26.6251 1.8154C26.9077 1.97071 27.2272 2.04559 27.5804 2.06634C27.8805 2.08987 28.1736 2.1661 28.4737 2.18963C28.7206 2.21594 28.9606 2.29496 29.2111 2.29492C29.6059 2.3004 29.9636 2.38634 30.2877 2.52638C30.6499 2.67752 30.997 2.8425 31.3592 2.99363C31.6567 3.13507 31.9578 3.25016 32.2959 3.28478C32.8049 3.32353 33.2247 3.53709 33.7082 3.66878C34.2031 3.81296 34.6088 4.1319 35.0887 4.28995C35.4279 4.41612 35.767 4.54232 36.1061 4.66849C36.1557 4.69206 36.2053 4.71562 36.2584 4.71284C36.7975 4.72384 37.2137 4.96374 37.6565 5.20225C37.8895 5.33398 38.171 5.39775 38.4375 5.47538C38.8183 5.58629 39.1654 5.75131 39.4905 5.9829C39.5631 6.03144 39.6357 6.07998 39.6968 6.11603C40.1432 6.32819 40.5895 6.54032 41.0208 6.76635C41.2687 6.88422 41.4866 7.02984 41.7045 7.17546C42.1172 7.44171 42.5565 7.70658 42.9808 7.98532C43.0304 8.00889 43.08 8.03247 43.1181 8.04356C43.8194 8.32086 44.4235 8.73411 45.0426 9.1335C45.4553 9.39975 45.8716 9.63968 46.2542 9.93369C46.8663 10.3858 47.4934 10.824 48.0384 11.3843C48.399 11.7449 48.7596 12.1055 49.2705 12.3273C49.3963 12.3731 49.4884 12.473 49.5806 12.5728C50.2247 13.1803 50.8422 13.7891 51.4863 14.3966C51.6281 14.52 51.7734 14.6171 51.9301 14.7266C52.0373 14.8126 52.148 14.8722 52.2402 14.9721C53.2564 15.9526 54.2877 16.9193 55.2889 17.9137C55.7301 18.3617 56.1112 18.8651 56.5224 19.3408C56.557 19.3783 56.5915 19.4157 56.6261 19.4532C56.9451 19.829 57.2641 20.2049 57.5796 20.6071C57.8606 20.9719 58.1415 21.3367 58.434 21.7139C58.6494 21.9774 58.8612 22.2673 59.0615 22.5447C59.331 22.897 59.6004 23.2493 59.8663 23.6279C60.1783 24.0565 60.4903 24.485 60.7722 24.9413C61.2279 25.6765 61.6836 26.4116 62.1393 27.1467C62.4292 27.6418 62.7873 28.1203 62.9605 28.7001C62.98 28.7515 62.9995 28.8028 63.0226 28.8277C63.3941 29.5018 63.7657 30.1759 64.1372 30.85C64.1682 30.9138 64.2143 30.9637 64.2338 31.015C64.3945 31.4908 64.687 31.868 64.8211 32.3452C64.8762 32.5255 64.9878 32.6767 65.0579 32.8432C65.3649 33.5075 65.6602 34.1595 65.869 34.8682C65.8805 34.8807 65.877 34.9071 65.8885 34.9195C66.0908 35.38 66.278 35.8544 66.4086 36.3579C66.4992 36.6672 66.6464 36.9474 66.7485 37.2692C66.9873 37.9502 67.173 38.6341 67.3551 39.3443C67.6359 40.4026 67.86 41.4901 68.0991 42.5637C68.1072 42.6025 68.1036 42.6289 68.1116 42.6677C68.3245 43.0492 68.2762 43.5097 68.3227 43.9522C68.3477 44.1603 68.3727 44.3683 68.4127 44.5625C68.5808 45.3781 68.6958 46.1965 68.6975 47.0732C68.7067 48.2897 68.7159 49.5062 68.7251 50.7227C68.7295 50.7879 68.7455 50.8656 68.7235 50.9322C68.5419 51.7007 68.5993 52.4567 68.3911 53.2266C68.3179 53.4791 68.3093 53.7413 68.2892 53.9909C68.255 54.3461 68.1793 54.7164 68.092 55.0743C67.9466 55.6708 67.8542 56.2645 67.6406 56.8777C67.5117 57.2508 67.459 57.6462 67.3302 58.0194C67.1246 58.6713 66.8924 59.3247 66.6372 59.9531C66.4748 60.3804 66.2362 60.7855 66.0472 61.2141C65.9174 61.4958 65.8141 61.776 65.6842 62.0576C65.6251 62.2046 65.5544 62.3392 65.4837 62.4737C65.018 63.2964 64.5674 64.1052 64.0256 64.9057C63.9283 65.0416 63.8276 65.204 63.7534 65.3649C63.6085 65.6604 63.4256 65.9448 63.1815 66.1931C63.1665 66.207 63.1514 66.2209 63.1364 66.2347C62.8006 66.7758 62.3807 67.2558 62.0103 67.7594C61.9316 67.8551 61.8795 67.9494 61.8388 68.0563C61.8018 68.1367 61.8027 68.2283 61.7922 68.3073C61.988 68.5195 62.1457 68.7206 62.3451 68.9065C62.4984 69.0424 62.6552 69.1519 62.8084 69.2879C63.0343 69.4723 63.2717 69.6693 63.4826 69.8676C63.8352 70.1893 64.1692 70.5513 64.5369 70.8592C64.7743 71.0561 64.8764 71.3779 65.1855 71.5319C65.468 71.6872 65.6718 71.9382 65.8942 72.149C66.1281 72.3723 66.3505 72.5831 66.5693 72.8203C66.7537 73.02 66.9114 73.2211 67.0807 73.4347C67.1728 73.5346 67.265 73.6344 67.3456 73.7218C67.7062 74.0824 68.0784 74.4554 68.454 74.8022C68.6994 75.0379 68.9414 75.3 69.1417 75.5774C69.4847 76.0698 69.8728 76.5206 70.2309 76.9991C70.4888 77.3389 70.7317 77.6925 70.9861 78.0587C71.0431 78.4221 71.3266 78.669 71.4402 79.0033C71.4712 79.0671 71.4873 79.1448 71.5218 79.1822C71.8063 79.5206 72.1023 79.8715 72.3867 80.2099C72.4559 80.2848 72.525 80.3597 72.5791 80.4485C72.8264 80.8673 73.0472 81.2876 73.2796 81.7204C73.3762 81.8854 73.4614 82.038 73.558 82.203C73.6627 82.4069 73.8089 82.5955 73.8985 82.8133C74.0582 83.1975 74.278 83.5262 74.4829 83.8688C74.6646 84.1865 74.888 84.4888 74.8999 84.8939C74.9124 84.9979 74.9665 85.0867 75.0055 85.1893C75.1918 85.5721 75.3665 85.9425 75.5528 86.3253C75.5953 86.4016 75.6379 86.4779 75.6539 86.5555C75.7109 86.9189 75.9148 87.17 76.0885 87.4487C76.2623 87.7275 76.421 88.0202 76.5346 88.3545C76.6447 88.7151 76.7699 89.0619 76.9516 89.3795C77.1529 89.7485 77.2826 90.1604 77.4272 90.5585C77.611 91.0592 77.7416 91.5627 77.9403 92.0496C78.4595 93.3964 78.7972 94.8181 79.2031 96.2233C79.3293 96.6616 79.4819 97.0985 79.5514 97.566C79.6504 98.3067 79.8927 98.9614 80.0067 99.6882C80.1387 100.676 80.2442 101.665 80.3877 102.665C80.4982 103.418 80.5024 104.177 80.5864 104.932C80.5988 105.036 80.6114 105.14 80.5973 105.245C80.5155 105.76 80.5965 106.24 80.636 106.735C80.6549 107.087 80.6738 107.439 80.6777 107.806C80.6832 107.962 80.6887 108.119 80.7056 108.288C80.7236 108.549 80.7681 108.809 80.6914 109.087C80.6693 109.154 80.6588 109.233 80.6748 109.311C80.7568 109.882 80.6759 110.488 80.6482 111.092C80.6326 111.407 80.5754 111.737 80.6244 112.061C80.6449 112.204 80.6088 112.376 80.5992 112.547C80.5519 113.099 80.4896 113.665 80.3742 114.234C80.3416 114.379 80.3356 114.524 80.3296 114.668C80.2893 115.167 80.2075 115.682 80.1522 116.195C80.0724 116.893 79.9359 117.62 79.7764 118.322C79.668 118.838 79.5712 119.366 79.4743 119.895C79.381 120.397 79.2646 120.874 79.1447 121.378C79.1156 121.497 79.0715 121.63 79.0274 121.763C78.9948 121.909 78.9356 122.056 78.9296 122.2C78.8487 122.806 78.7564 123.4 78.4932 123.99C78.4711 124.056 78.4605 124.135 78.4385 124.202C78.3045 124.811 78.1821 125.432 78.0332 126.055C77.9018 126.546 77.7703 127.037 77.6124 127.53C77.3185 128.448 77.0513 129.365 76.7309 130.285C76.4105 131.205 76.0254 132.115 75.682 133.009C75.5672 133.277 75.4789 133.544 75.3756 133.824C75.2608 134.091 75.146 134.359 75.0312 134.627C74.9349 134.854 74.8122 135.083 74.7425 135.309C74.4918 136.003 74.1418 136.65 73.83 137.307C73.7002 137.589 73.5589 137.858 73.429 138.139C73.2841 138.435 73.1393 138.73 72.9679 139.027C72.6135 139.609 72.3087 140.213 71.9889 140.832C71.5798 141.626 71.0831 142.385 70.5599 143.145C70.4291 143.335 70.2832 143.539 70.1524 143.729C69.6928 144.407 69.2712 145.097 68.7656 145.725C68.3385 146.258 68.0072 146.864 67.4925 147.362C67.1884 147.666 66.9037 148.021 66.6721 148.374C66.4777 148.646 66.2221 148.881 66.0161 149.141C65.3796 149.959 64.6013 150.654 63.8922 151.424C62.8117 152.606 61.7232 153.75 60.5852 154.869C60.3862 155.076 60.2253 155.294 60.0264 155.501C59.6585 155.886 59.2641 156.273 58.8732 156.634C58.6628 156.828 58.4558 156.996 58.2799 157.228C58.1526 157.391 57.9872 157.544 57.8219 157.697C57.6264 157.877 57.4345 158.031 57.239 158.211C56.338 159.135 55.3989 160.048 54.4633 160.935C54.0689 161.322 53.6249 161.685 53.2189 162.06C52.4823 162.74 51.7031 163.343 50.9203 163.973C50.1075 164.631 49.2567 165.278 48.4323 165.923C47.5779 166.596 46.7075 167.191 45.8221 167.8C45.1551 168.254 44.4732 168.721 43.7947 169.162C43.6779 169.247 43.5612 169.332 43.4479 169.39C42.6923 169.718 42.0414 170.249 41.3363 170.692C41.0197 170.891 40.6799 171.066 40.3667 171.24C40.2535 171.298 40.1438 171.33 40.0571 171.387C39.6582 171.709 39.2088 171.915 38.7824 172.147C38.3144 172.394 37.8659 172.692 37.4014 172.913C36.767 173.221 36.1212 173.517 35.4868 173.825C35.2037 173.97 34.9322 174.129 34.6641 174.26C33.7351 174.702 32.7796 175.144 31.8391 175.573C31.586 175.691 31.3365 175.783 31.087 175.874C30.2402 176.194 29.3935 176.513 28.5317 176.846C27.8512 177.104 27.1893 177.322 26.5009 177.541C25.8275 177.747 25.1586 178.017 24.4817 178.249C23.8614 178.452 23.2446 178.628 22.6128 178.818C22.1739 178.946 21.7315 179.1 21.2926 179.227C20.5961 179.408 19.8847 179.602 19.1882 179.783C18.821 179.867 18.4653 179.964 18.121 180.074C17.9752 180.278 18.0037 180.46 18.0056 180.643C18.022 181.113 18.0419 181.557 17.9105 182.048C17.8779 182.194 17.8984 182.337 17.9189 182.479C18.0294 183.233 17.9921 184.007 17.9017 184.783C17.857 185.218 17.8388 185.65 17.8738 186.08C17.9052 186.537 17.842 187.011 17.8053 187.484C17.7851 187.734 17.75 187.997 17.7299 188.247C17.7309 188.339 17.7318 188.43 17.7478 188.508C17.8154 188.792 17.7652 189.07 17.685 189.375C17.5977 189.733 17.5485 190.102 17.5143 190.457C17.4194 191.169 17.2599 191.87 17.0853 192.586C17.0201 192.878 16.8442 193.109 16.6072 193.305C16.4453 193.431 16.294 193.478 16.0886 193.437C15.7821 193.165 15.4039 192.936 15.123 192.571C14.8305 192.194 14.4257 191.967 13.9759 191.781C13.8006 191.712 13.6403 191.628 13.4985 191.505C13.3798 191.406 13.2576 191.334 13.1204 191.276C12.6936 191.115 12.3339 190.846 11.9327 190.592C11.7269 190.158 11.3177 189.866 10.9651 189.544C10.647 189.26 10.2989 189.003 9.95076 188.747C9.66376 188.526 9.3467 188.333 9.0597 188.113C8.59287 187.758 8.02881 187.539 7.52841 187.238C7.11215 186.998 6.68088 186.772 6.31675 186.438C6.07134 186.202 5.76927 185.995 5.49378 185.787C5.34052 185.651 5.21381 185.514 5.10565 185.336C4.99749 185.159 4.81766 185.024 4.66791 184.862C4.52617 184.739 4.38093 184.642 4.22416 184.532C3.80341 184.227 3.38263 183.922 2.9734 183.629C2.70943 183.434 2.41543 183.266 2.12139 183.098C1.78928 182.919 1.42005 182.821 1.02527 182.815C0.972165 182.818 0.922589 182.795 0.857964 182.785C0.82692 182.721 0.79236 182.684 0.776351 182.606C0.748822 182.516 0.751363 182.398 0.738869 182.294C0.640862 181.645 0.641052 180.951 0.474906 180.319C0.411844 180.099 0.393885 179.839 0.455585 179.574C0.491706 179.402 0.436658 179.221 0.411669 179.013C0.556542 178.718 0.731482 178.395 0.909938 178.045C1.31878 177.945 1.76668 177.948 2.10192 177.708C2.25128 177.477 2.36706 177.301 2.50939 177.124C2.92839 176.552 3.46959 176.053 3.96122 175.53C4.13011 175.351 4.2955 175.198 4.51046 175.069C4.6237 175.011 4.71743 174.901 4.82267 174.804C5.14189 174.486 5.47613 174.155 5.79536 173.837C5.93066 173.712 6.07749 173.6 6.16321 173.451C6.37622 173.139 6.66634 172.941 6.94495 172.73C7.00509 172.674 7.08826 172.644 7.1484 172.588C7.48266 172.257 7.88252 172.026 8.24431 171.785C8.73437 171.471 9.20142 171.133 9.68797 170.846C10.2196 170.517 10.7743 170.213 11.329 169.909C11.6572 169.722 11.9819 169.561 12.3216 169.386C12.6348 169.212 12.9559 169.078 13.2966 168.994C13.5637 168.771 13.8354 168.613 14.161 168.543C14.5017 168.46 14.8529 168.298 15.1581 168.086C15.6216 167.773 16.1357 167.576 16.6508 167.471C16.8402 167.435 17.0295 167.399 17.2039 167.376C17.4022 167.471 17.4538 167.677 17.5204 167.87C17.6455 168.217 17.7822 168.576 17.8808 168.924C18.0735 169.555 18.1945 170.23 18.1262 170.94C18.0579 171.65 18.1108 172.341 18.1256 173.02C18.1365 173.334 18.1855 173.659 18.0902 173.978C18.0832 174.03 18.0762 174.083 18.0806 174.148C18.1297 174.473 18.0875 174.789 18.0568 175.118C18.0402 175.341 18.0537 175.537 18.1654 175.688C18.2796 175.721 18.3743 175.703 18.4495 175.634C18.6149 175.481 18.8192 175.431 19.0237 175.381C19.2662 175.342 19.4972 175.291 19.7963 175.223C19.9255 175.242 20.1079 175.259 20.3133 175.301C20.6159 175.206 20.9486 175.084 21.2777 174.988C21.5653 174.908 21.868 174.813 22.1521 174.759C22.7884 174.634 23.4006 174.393 24.0209 174.19C24.3651 174.081 24.7049 173.906 25.0571 173.835C25.5306 173.745 25.965 173.552 26.4304 173.423C26.7596 173.327 27.0888 173.231 27.402 173.058C27.417 173.044 27.4436 173.042 27.4586 173.029C28.0152 172.908 28.5514 172.644 29.0885 172.472C29.323 172.394 29.5575 172.317 29.807 172.225C30.1132 172.104 30.4113 171.945 30.6093 171.646C30.8403 171.595 31.0632 171.505 31.2791 171.467C31.5216 171.428 31.7597 171.324 31.9551 171.144C32.1054 171.005 32.2903 170.904 32.4682 170.855C32.9752 170.711 33.4432 170.464 33.9077 170.243C34.0059 170.199 34.0776 170.156 34.1723 170.138C34.5626 170.078 34.8908 169.891 35.2225 169.677C35.4375 169.548 35.6639 169.432 35.9099 169.366C36.2621 169.296 36.5939 169.082 36.8911 168.831C37.2183 168.552 37.5846 168.376 37.9393 168.187C38.0942 168.113 38.2375 168.027 38.3958 167.928C38.7877 167.658 39.1955 167.467 39.6495 167.325C40.1034 167.184 40.5529 166.977 40.9287 166.63C41.2144 166.366 41.5381 166.114 41.8583 165.888C42.1484 165.689 42.443 165.556 42.7882 165.538C43.1986 165.229 43.6391 164.892 44.061 164.595C44.2645 164.453 44.506 164.323 44.7209 164.194C45.1323 163.976 45.4941 163.734 45.8399 163.415C46.2157 163.068 46.6067 162.708 47.1022 162.551C47.2535 162.504 47.4269 162.39 47.5356 162.266C47.907 161.854 48.367 161.568 48.7889 161.272C49.0224 161.102 49.2825 160.932 49.5275 160.775C49.6142 160.718 49.7009 160.661 49.761 160.606C50.1484 160.271 50.5393 159.911 50.9266 159.576C51.2088 159.339 51.4758 159.116 51.7544 158.905C52.0782 158.652 52.3824 158.348 52.683 158.071C53.2694 157.53 53.9017 157.039 54.465 156.472C54.5402 156.403 54.6154 156.334 54.6906 156.264C55.0479 155.958 55.4202 155.637 55.7084 155.256C55.8692 155.038 56.0912 154.856 56.2902 154.649C56.5307 154.427 56.8208 154.229 57.0038 153.945C57.0223 153.904 57.0639 153.889 57.094 153.861C57.8246 153.326 58.3824 152.603 59.0554 152.005C59.1757 151.894 59.2845 151.771 59.3667 151.649C59.509 151.471 59.6363 151.307 59.8247 151.18C59.9114 151.123 59.9751 151.041 60.0502 150.971C60.5003 150.464 60.9388 149.943 61.4119 149.461C61.6559 149.212 61.9611 149 62.2848 148.747C62.5916 148.326 62.9584 147.849 63.4059 147.459C63.6314 147.251 63.8259 146.979 64.0053 146.721C64.1511 146.517 64.305 146.352 64.5085 146.21C64.6252 146.125 64.7305 146.028 64.8092 145.933C65.397 145.182 65.9849 144.431 66.6189 143.731C66.6976 143.635 66.7497 143.541 66.8169 143.433C67.1121 142.998 67.3957 142.552 67.7786 142.152C67.9475 141.973 68.0784 141.783 68.2092 141.593C68.4743 141.186 68.7545 140.766 69.0807 140.396C69.2231 140.218 69.3574 140.002 69.4882 139.812C69.817 139.323 70.1458 138.835 70.4631 138.334C70.6646 138.01 70.8129 137.688 71.0029 137.351C71.1222 137.148 71.215 136.947 71.3342 136.744C71.8565 135.893 72.3177 135.005 72.7143 134.107C73.0922 133.25 73.4853 132.379 73.8783 131.507C74.334 130.463 74.7367 129.421 75.1047 128.342C75.3333 127.715 75.5239 127.077 75.7375 126.463C75.9987 125.691 76.2219 124.907 76.4451 124.123C76.5253 123.818 76.6056 123.513 76.6743 123.195C76.9863 121.844 77.3098 120.505 77.6218 119.154C77.8686 118.095 78.0889 117.036 78.2941 115.992C78.3699 115.621 78.3925 115.254 78.4532 114.897C78.7694 113.219 78.9677 111.533 79.0414 109.894C79.1099 108.49 79.1669 107.073 79.0992 105.703C79.0658 105.064 79.0324 104.424 78.984 103.798C78.9436 103.212 78.9147 102.637 78.8478 102.052C78.7648 101.389 78.6818 100.726 78.5838 100.077C78.4518 99.0892 78.2367 98.1321 77.995 97.1764C77.6822 95.9627 77.3844 94.7352 76.9168 93.595C76.5974 92.8266 76.3347 92.029 76.0418 91.2592C75.5928 90.0788 75.1172 88.8999 74.4983 87.8069C74.4247 87.6668 74.3776 87.5254 74.3155 87.3978C74.2729 87.3215 74.2719 87.2299 74.2143 87.1675C73.7516 86.4851 73.4438 85.7292 73.0377 85.0176C72.5154 84.0897 71.9666 83.1632 71.3877 82.2644C71.1598 81.8969 70.9019 81.5571 70.659 81.2034C70.5358 81.0397 70.4542 80.8608 70.331 80.6972C70.2229 80.5196 70.1112 80.3684 69.988 80.2048C69.9304 80.1424 69.8728 80.08 69.8303 80.0037C69.621 79.5959 69.3515 79.2436 69.052 78.9191C68.8677 78.7194 68.71 78.5182 68.5257 78.3185C68.3989 78.1812 68.2987 78.0426 68.172 77.9052C68.0568 77.7804 67.9717 77.6278 67.853 77.5294C67.4508 77.1841 67.1388 76.7555 66.8569 76.2992C66.7682 76.173 66.6912 76.0592 66.5875 75.9469C66.2269 75.5863 65.8963 75.198 65.6259 74.7541C65.5523 74.614 65.4106 74.4906 65.2618 74.4199C65.09 74.3242 64.9217 74.2022 64.7834 74.0524C64.3883 73.6543 64.0081 73.2424 63.5979 72.8583C63.2338 72.524 62.8396 72.2175 62.4003 71.9526C62.1674 71.8209 61.968 71.6351 61.7802 71.4617C61.3815 71.09 60.9979 70.7045 60.5877 70.3203C60.4344 70.1844 60.2927 70.061 60.0457 70.0347C59.7696 70.1276 59.5672 70.3607 59.4028 70.6049C59.2198 70.8893 58.9181 71.0752 58.7237 71.3471C58.645 71.4428 58.5052 71.5025 58.3885 71.5871C58.1169 71.7453 57.8568 71.916 57.6624 72.1879C57.5015 72.4057 57.275 72.5223 57.0485 72.6388C56.6787 72.8414 56.3665 73.1064 56.0818 73.4616C55.6509 73.6281 55.2741 73.8834 54.9248 74.2289C54.6693 74.4647 54.3756 74.6895 54.0509 74.8505C53.8545 74.9393 53.6776 75.0794 53.5238 75.2445C53.3398 75.4373 53.1479 75.5914 52.9099 75.6954C52.6153 75.8287 52.3667 76.0118 52.1146 76.2213C51.9944 76.3323 51.8626 76.4308 51.7343 76.503C51.5494 76.6043 51.322 76.6292 51.1451 76.7694C50.9567 76.897 50.7948 77.0233 50.5984 77.1121C50.3418 77.2564 50.1048 77.452 49.8483 77.5963C49.5351 77.7698 49.2334 77.9557 48.9743 78.2179C48.7849 78.254 48.6071 78.3026 48.3911 78.3401C47.9692 78.637 47.5358 78.9215 47.0873 79.2198C46.9856 79.2905 46.8874 79.3349 46.7777 79.3669C46.3653 79.4932 45.9955 79.6958 45.6647 80.001C45.4242 80.223 45.1331 80.3298 44.8385 80.463C44.627 80.5657 44.4156 80.6684 44.1926 80.7586C44.0528 80.8183 43.898 80.8918 43.7652 80.8988C43.5378 80.9238 43.3263 81.0265 43.1184 81.1028C42.9219 81.1916 42.714 81.268 42.5176 81.3568C42.2495 81.4886 41.9965 81.6065 41.6152 81.7967C41.547 81.8133 41.3577 81.8494 41.2364 81.8689C40.9914 82.0256 40.7915 82.1408 40.5765 82.2699C40.08 82.3351 39.6465 82.6196 39.159 82.8153C39.0263 82.8222 38.8819 82.8167 38.7642 82.8098C38.428 82.9583 38.0918 83.1067 37.729 83.2566C37.6318 83.3926 37.4619 83.48 37.269 83.5425C36.8832 83.6674 36.4975 83.7923 36.1232 83.9297C35.8055 84.0379 35.4984 84.0671 35.2018 84.0172C34.8551 84.2448 34.5073 84.3807 34.133 84.5181C33.649 84.6875 33.1535 84.8443 32.658 85.0011C32.2722 85.126 31.8889 85.1331 31.4896 85.0624C31.3614 85.1345 31.2216 85.1942 31.1048 85.2788C30.8863 85.4342 30.6634 85.5244 30.4094 85.5508C30.2085 85.5744 29.996 85.5856 29.7951 85.6092C29.3136 85.6606 28.8322 85.712 28.3757 85.9715C28.2624 86.0298 28.1147 86.0506 27.9934 86.07C27.6146 86.1422 27.2509 86.2006 26.8836 86.2852C26.2173 86.4379 25.5429 86.5518 24.9046 86.4937C24.8515 86.4964 24.7869 86.4867 24.7453 86.502C24.3215 86.6158 23.9072 86.559 23.4753 86.634C23.3275 86.6548 23.1797 86.6757 23.0389 86.6438C22.7804 86.605 22.5379 86.6439 22.2724 86.6578C22.0334 86.6703 21.7944 86.6828 21.5775 86.6288C21.319 86.59 21.0454 86.5651 20.7649 86.5929C20.1622 86.6637 19.6106 86.5487 19.0706 86.4462C18.9794 86.4379 18.9068 86.3893 18.8121 86.4073C18.4288 86.4143 18.0977 86.327 17.8337 86.1315C17.7611 86.083 17.6699 86.0746 17.5937 86.0525C17.0537 85.9499 16.5252 85.8598 15.9631 85.8238C15.4125 85.8004 14.9582 85.5494 14.5489 85.2568C14.3691 85.1222 14.1928 84.9614 14.0316 84.7866C13.8818 84.6243 13.7135 84.5023 13.4851 84.4358C13.1274 84.3498 12.8519 84.1418 12.5799 83.9074C12.2043 83.5607 11.8472 83.1737 11.6033 82.7285C11.356 82.3096 11.1652 81.8616 10.9895 81.3998C10.7542 80.6924 10.534 79.9711 10.2572 79.2789C10.1595 79.0223 10.13 78.7491 10.1421 78.4606C10.1564 77.6616 10.3946 76.8639 10.6143 76.1065C10.8158 75.7819 11.1104 75.6486 11.39 75.5293C11.7639 74.9994 11.9414 74.5582 12.0257 73.9256C12.2784 73.4151 12.6037 72.9532 12.967 72.5023C13.1244 72.3108 13.2967 72.1055 13.4922 71.9252C13.6576 71.7726 13.7964 71.6213 13.8776 71.4077C13.9774 71.1538 14.1613 70.961 14.3948 70.7917C14.8734 70.4657 15.2943 70.0771 15.562 69.5528C15.7405 69.2032 15.942 68.8786 16.2381 68.5359C16.3965 68.436 16.5699 68.3222 16.7433 68.2084C16.9492 67.949 17.1402 67.7035 17.2585 67.4094C17.3212 67.236 17.4299 67.1125 17.5652 66.9876C17.8208 66.7518 18.0383 66.5048 18.34 66.3189C18.3966 66.2898 18.4532 66.2606 18.4868 66.2065C18.8236 65.757 19.3376 65.5599 19.7631 65.2367C19.7781 65.2228 19.7931 65.2089 19.8082 65.195C20.1975 65.0438 20.5017 64.7399 20.7909 64.45C20.8209 64.4222 20.8625 64.407 21.0058 64.3209C21.0324 64.3196 21.1917 64.3112 21.3776 64.3014C21.3625 64.3153 21.3926 64.2876 21.4076 64.2737C21.5429 64.1488 21.6632 64.0378 21.81 63.9254C21.9719 63.7992 22.1533 63.7242 22.3036 63.5855C22.5592 63.3496 22.8388 63.2303 23.1239 63.2677C23.2937 63.1803 23.437 63.0942 23.5954 62.9943C23.7076 62.8445 23.8049 62.7086 23.9322 62.5449C24.0569 62.4991 24.1967 62.4394 24.3481 62.3922C24.5109 62.3575 24.6887 62.3089 24.8365 62.2881C25.1587 62.245 25.4613 62.1507 25.7239 61.8621C26.6603 61.7607 27.5086 61.232 28.2713 60.8518C28.904 60.7532 29.4271 60.6865 29.9687 60.5796C30.1165 60.5588 30.2713 60.4852 30.3996 60.4131C30.6862 60.241 30.9739 60.1605 31.2624 60.1716C31.5776 60.1812 31.8917 60.0993 32.1933 59.9134C32.51 59.7136 32.8322 59.6705 33.1483 59.7717C33.4263 59.8618 33.7449 59.8451 34.0521 59.816C34.2264 59.7937 34.3892 59.7591 34.5476 59.6592C34.9058 59.4441 35.2546 59.3996 35.6378 59.3926C36.1123 59.3939 36.5717 59.4091 37.0602 59.305C37.2911 59.2536 37.5001 59.2688 37.6869 59.3506C37.9844 59.4921 38.296 59.5281 38.6783 59.4296C39.1022 59.3157 39.528 59.385 39.9158 59.4432C40.4098 59.4958 40.9002 59.5748 41.4162 59.5609C41.8411 59.5386 42.2659 59.5163 42.6246 59.6938C42.7619 59.752 42.9327 59.7562 43.0885 59.7742C43.4762 59.8324 43.849 59.9044 44.2588 59.896C44.642 59.889 44.9732 59.9764 45.2592 60.1053C45.8204 60.0497 46.3002 60.2078 46.7686 60.3533C47.1609 60.4767 47.5717 60.5599 47.9268 60.7637C47.9994 60.8123 48.1287 60.8317 48.2199 60.84C48.6563 60.8302 48.9999 61.0216 49.362 61.1727C49.4497 61.2073 49.5108 61.2434 49.5835 61.2919C50.176 61.6927 50.8658 61.9576 51.5741 62.1822C51.6503 62.2043 51.738 62.239 51.8291 62.2473C52.1708 62.2556 52.4303 62.3859 52.7349 62.4746C53.3671 62.677 53.8534 63.0834 54.3884 63.4218C54.6178 63.5799 54.8773 63.7102 55.1217 63.8544C55.3281 63.9876 55.546 64.1331 55.7674 64.2524C55.8896 64.3245 56.0233 64.4091 56.1606 64.4673C56.7512 64.685 57.2145 65.0664 57.7415 65.3659C58.047 65.5462 58.2924 65.782 58.5794 66.0025C58.7643 65.9012 58.837 65.9497 58.9246 65.9844ZM57.0579 67.8227C57.0595 67.6132 56.9939 67.512 56.8832 67.4523C56.6467 67.347 56.4068 67.268 56.1703 67.1626C55.9454 67.0697 55.7054 66.9906 55.5407 66.8422C55.1535 66.483 54.7142 66.2182 54.2749 65.9533C53.9924 65.798 53.7399 65.615 53.4574 65.4596C53.1634 65.2918 52.8658 65.1504 52.5417 65.0104C52.1034 64.837 51.6872 64.5971 51.2118 64.5043C50.9798 64.4641 50.7734 64.331 50.5485 64.2381C50.4228 64.1923 50.3191 64.08 50.1898 64.0606C49.8437 63.9871 49.5461 63.8457 49.2185 63.732C48.8794 63.6058 48.5367 63.506 48.1826 63.3937C48.1099 63.3452 48.1275 63.2134 48.0028 63.2592C47.9081 63.2772 47.8134 63.2953 47.7372 63.2731C47.3184 63.1511 46.8961 63.0554 46.4924 62.9196C46.0009 62.749 45.5025 62.6312 44.9554 62.5814C44.7996 62.5634 44.6438 62.5454 44.4764 62.5149C44.0656 62.4318 43.6549 62.3486 43.229 62.2793C42.2331 62.1352 41.1931 62.1243 40.1751 62.0468C39.7953 62.0275 39.4085 62.0608 39.0253 62.0678C38.6039 62.0638 38.2012 62.0194 37.7968 62.1845C37.4622 62.1236 37.1656 62.0737 36.8805 62.0363C36.4928 61.9781 36.091 62.0253 35.6901 62.1641C35.5388 62.2113 35.4061 62.2182 35.2583 62.2391C34.9627 62.2807 34.667 62.3224 34.3714 62.3641C34.1705 62.3877 33.9661 62.4377 33.7652 62.4613C33.3484 62.5224 32.92 62.571 32.4881 62.646C31.8784 62.7696 31.2651 62.9195 30.6669 63.0555C30.5306 63.0889 30.3943 63.1222 30.2811 63.1804C29.8963 63.3969 29.4909 63.4705 29.0821 63.5704C28.9193 63.6051 28.7414 63.6537 28.5866 63.7273C27.7628 64.0714 26.9231 64.3379 26.1038 64.7473C25.1032 65.2316 24.0716 65.652 23.11 66.239C22.5934 66.5539 22.0422 66.8315 21.5761 67.2616C21.3205 67.4974 20.9958 67.6584 20.6827 67.8318C20.611 67.8749 20.4933 67.8679 20.4517 67.8832C20.3695 68.0053 20.3254 68.1384 20.2201 68.2356C20.0362 68.4284 19.8328 68.5699 19.6373 68.7503C19.5321 68.8474 19.4038 68.9196 19.3367 69.0278C19.0299 69.4495 18.6541 69.7964 18.2747 70.1696C17.9856 70.4595 17.7229 70.7481 17.4834 71.0617C17.2403 71.4016 16.9627 71.704 16.7081 72.0314C16.3297 72.4961 15.9513 72.9609 15.5995 73.4243C15.3599 73.7378 15.1433 74.0763 14.9153 74.4023C14.1374 75.49 14.0853 75.5843 13.4201 76.9147C13.3123 77.1297 13.163 77.36 13.0056 77.5515C12.8633 77.729 12.7475 77.9053 12.6813 78.105C12.6081 78.3575 12.4818 78.6127 12.4086 78.8652C12.1298 79.7697 12.1297 79.7697 12.3164 80.5451C12.3244 80.5839 12.3474 80.6088 12.382 80.6463C12.7086 80.6684 12.9876 80.8501 13.1799 81.0887C13.2721 81.1885 13.3828 81.2481 13.505 81.3203C13.8982 81.5352 14.3551 81.6683 14.7448 81.9096C15.0123 82.0788 15.2798 82.2479 15.6736 82.1619C15.7001 82.1605 15.7382 82.1716 15.7763 82.1827C16.149 82.2547 16.5182 82.3532 16.9059 82.4114C17.1113 82.4529 17.3318 82.4806 17.5442 82.4695C17.9691 82.4472 18.3568 82.5054 18.7305 82.669C18.9669 82.7744 19.2254 82.8132 19.4689 82.8659C19.6618 82.8034 19.8281 82.7423 19.9795 82.6952C20.238 82.734 20.4699 82.7741 20.7425 82.7075C20.8106 82.6908 20.8903 82.6867 20.9664 82.7089C21.1949 82.7754 21.4374 82.7365 21.6648 82.7115C22.0781 82.6768 22.4684 82.617 22.8783 82.6087C23.235 82.603 23.6102 82.5572 23.981 82.4461C24.1323 82.399 24.2766 82.4045 24.4244 82.3836C24.8943 82.3198 25.3838 82.3072 25.8643 82.1642C26.1254 82.0851 26.4094 82.031 26.683 82.0559C26.8122 82.0753 26.9751 82.0406 27.1264 81.9934C27.929 81.8074 28.7432 81.6338 29.5548 81.5782C29.5813 81.5768 29.6345 81.574 29.6761 81.5588C29.891 81.4297 30.1149 81.4311 30.3344 81.3672C30.5804 81.302 30.8114 81.2506 31.0494 81.1466C31.3024 81.0286 31.5519 80.937 31.821 80.8967C32.2378 80.8356 32.6271 80.6844 33.0165 80.5331C33.5721 80.3208 34.1553 80.1986 34.695 79.9086C34.7932 79.8642 34.9145 79.8447 35.0242 79.8128C35.7587 79.6434 36.5037 79.395 37.2062 79.0703C37.4858 78.9509 37.7469 78.8718 38.0194 78.8052C38.3867 78.7205 38.7459 78.597 39.0892 78.3958C39.2891 78.2807 39.5121 78.1904 39.7315 78.1266C39.9926 78.0475 40.2305 77.9434 40.4756 77.7866C40.6905 77.6576 40.9286 77.5535 41.1666 77.4494C41.4577 77.3426 41.7453 77.2621 42.0479 77.1677C42.339 77.0608 42.6301 76.954 42.8937 76.7569C42.9954 76.6862 43.0475 76.5919 43.1377 76.5086C43.274 76.4753 43.3953 76.4559 43.5316 76.4225C43.6784 76.3102 43.8252 76.1978 43.8703 76.1562C44.7286 75.8495 45.4887 75.5871 46.1201 75.0044C46.3015 74.9295 46.4643 74.8948 46.6191 74.8213C46.8456 74.7047 47.0641 74.5493 47.2906 74.4327C47.5321 74.3023 47.7931 74.2232 48.0231 74.0803C48.3248 73.8943 48.6069 73.6571 48.8971 73.4587C49.1005 73.3171 49.319 73.1617 49.557 73.0577C50.2825 72.7579 50.9069 72.2279 51.5899 71.8519C52.3426 71.2497 53.1493 70.7364 53.8329 70.0593C53.908 69.9899 53.9947 69.9331 54.0814 69.8762C54.5027 69.8803 54.8344 69.6666 55.1191 69.3114C55.1677 69.2435 55.2394 69.2005 55.288 69.1325C55.4834 68.9521 55.6754 68.7981 55.9134 68.694C56.2647 68.5316 56.5538 68.2417 56.866 67.9767C56.9201 68.0654 56.9792 67.9184 57.0579 67.8227ZM16.5253 180.276C16.3925 180.282 16.2332 180.291 16.1004 180.298C15.6606 180.334 15.2242 180.344 14.7808 180.406C14.4586 180.449 14.125 180.48 13.7888 180.628C13.5207 180.76 13.2516 180.8 12.9631 180.789C12.7807 180.773 12.5648 180.81 12.3524 180.821C11.5292 180.865 10.6965 181.078 9.87686 181.095C9.7972 181.099 9.72905 181.116 9.66091 181.133C9.41842 181.171 9.17244 181.237 8.93347 181.249C8.44047 181.288 7.94748 181.327 7.45546 181.458C7.27759 181.506 7.0917 181.516 6.92887 181.551C6.79454 181.767 6.89468 181.906 6.9718 182.019C7.16411 182.258 7.38298 182.495 7.60536 182.706C7.96949 183.04 8.4424 183.251 8.78798 183.625C8.82253 183.663 8.87211 183.686 8.91018 183.698C9.2503 183.915 9.60896 184.093 9.919 184.338C10.2175 184.571 10.5912 184.735 10.7765 185.026C11.0014 185.119 11.1918 185.174 11.3636 185.27C11.856 185.532 12.4005 185.7 12.8443 186.03C12.8558 186.043 12.8824 186.041 12.8939 186.054C13.3207 186.214 13.6874 186.431 14.0355 186.687C14.5139 187.055 15.0408 187.354 15.444 187.791C15.5707 187.929 15.716 188.026 15.8727 188.135C15.9569 188.196 16.0746 188.203 16.1798 188.106C16.3151 187.981 16.3097 187.824 16.3157 187.68C16.4042 186.72 16.4926 185.76 16.5545 184.802C16.5817 184.499 16.5291 184.201 16.6094 183.896C16.6164 183.843 16.5969 183.792 16.604 183.739C16.6237 183.097 16.6169 182.456 16.6516 181.8C16.6768 181.314 16.5807 180.848 16.5378 180.38C16.5944 180.35 16.5714 180.325 16.5253 180.276ZM16.6052 176.018C16.6333 175.808 16.6659 175.662 16.6835 175.53C16.6937 175.058 16.7038 174.587 16.7105 174.142C16.7181 173.788 16.7257 173.434 16.7218 173.068C16.7268 172.832 16.7054 172.598 16.6238 172.419C16.3899 172.195 16.1023 172.276 15.8422 172.447C15.2655 172.817 14.6567 173.032 14.0604 173.351C13.5057 173.655 12.9155 173.83 12.3883 174.224C11.5009 174.65 10.6677 175.165 9.83085 175.706C9.44251 175.949 9.07721 176.217 8.70038 176.472C8.56859 176.57 8.3952 176.684 8.3786 176.908C8.52035 177.031 8.69217 177.127 8.91963 177.102C9.26834 177.057 9.62853 177.025 9.97723 176.981C10.125 176.96 10.2613 176.927 10.4056 176.932C10.7473 176.94 11.0925 176.922 11.4402 176.786C11.5234 176.756 11.6296 176.75 11.7243 176.732C12.3005 176.663 12.8616 176.607 13.4227 176.552C13.5174 176.534 13.6121 176.515 13.7068 176.497C14.1086 176.45 14.5255 176.389 14.9273 176.342C15.1698 176.303 15.4087 176.29 15.6512 176.252C15.9654 176.17 16.253 176.089 16.6052 176.018Z" fill="#20ADF3"/>
</svg>
